<?xml version="1.0" encoding="UTF-8"?>
<svg xmlns="http://www.w3.org/2000/svg" version="1.1" viewBox="0 0 2200 2000">
  <defs>
    <style>
      .cls-1 {
        fill: #80bdff;
      }

      .cls-2 {
        fill: #24a263;
      }

      .cls-3 {
        fill: #d3de45;
      }

      .cls-4 {
        fill: #3bcc84;
      }

      .cls-5 {
        fill: #2aad6b;
      }

      .cls-6 {
        fill: #d8df40;
      }

      .cls-7 {
        fill: #ff8ba2;
      }

      .cls-8 {
        fill: #fd0;
      }

      .cls-9 {
        fill:rgba(255, 255, 255, 0);
      }

      .cls-10 {
        fill: #a9a794;
      }

      .cls-11 {
        fill: #056a37;
      }

      .cls-12 {
        fill: #1f9a5c;
      }

      .cls-13 {
        fill: #d0eec0;
      }

      .cls-14 {
        fill: #fddd05;
      }

      .cls-15 {
        fill: #da5773;
      }

      .cls-16 {
        fill: #da5673;
      }

      .cls-17 {
        fill: #da5774;
      }
    </style>
  </defs>
  <!-- Generator: Adobe Illustrator 28.6.0, SVG Export Plug-In . SVG Version: 1.2.0 Build 709)  -->
  <g>
    <g id="Layer_1">
      <rect class="cls-9" width="2200" height="2000"/>
      <ellipse cx="603.3" cy="1834.5" rx="407.1" ry="33.1"/>
      <ellipse cx="1555.8" cy="1860.1" rx="315.3" ry="25.6"/>
      <g>
        <path class="cls-4" d="M720.1,851.3c-1.4,3.9-1.3,8-1.8,12-2.7,21.3-5.2,42.6-7.7,63.9-2.4,19.7-4.8,39.4-7.2,59-2.2,18.4-4.5,36.8-6.4,55.2-1.3,11.8-2,23.6-3,35.5,0,.6-.3,1.5,0,1.9,4,5.5,3,12.1,4.2,18.2,6.4,34,18.3,66,35.3,96.2,4.7,8.4,9.4,16.8,13.9,25.2,1.6,2.9,3.6,4.4,6.9,5.5,21.5,7.1,43.9,10.8,65.6,17.1,41.4,12,79,31.2,112.6,58.5,33,26.8,60.9,58.1,85.1,92.9,21.1,30.3,41.2,61.3,59.1,93.7,6.8,12.3,13,24.8,17.1,38.2,2.5,8,3.6,16.2,1.5,24.5-.6,2.5-1.5,5-2.9,7.2-4.4,7.1-12.5,9.1-19.4,4.4-2.8-1.9-5.7-2.9-8.8-3.9-21.6-7.3-44.1-11.1-66.2-16.6-33.2-8.1-65.8-18.3-96.3-34.2-55.6-29-99-70.6-129.9-125.3-15.9-28.1-27.3-57.9-34.3-89.4-2.9-13.2-3.4-26.7-2.1-40.3.4-4.7-.4-9.6.6-14.1,1.2-5.7-1.1-9.9-3.6-14.5-12.2-21.9-24.6-43.7-33.5-67.2-2.8-7.3-5.2-14.7-7.5-22.6-1.4,2.2-1.2,4.4-1.4,6.5-.8,13-1.5,26-2.3,38.9-1.2,17.2-2.5,34.4-3.7,51.6-1.4,20.3-2.6,40.6-3.9,60.8-.3,4.9-.5,9.7-.9,14.6-1.1,13.5,1.6,26.9.6,40.4-.4,5.5-.5,11-.6,16.6-.4,17.1.9,34.1,1.7,51.2.5,10.4.6,20.8,1.2,31.2,1.3,22.2,1.7,44.5,5.6,66.5,1.4,8,3.3,15.9,5.4,23.7,2.2,8,7,14.3,12.7,19.9,10.3,10.2,21.2,19.8,33.5,27.5,12.8,8,23,18.5,31.4,30.9,10.3,15.4,20.8,30.7,32.4,45.2,18.5,23,40.3,41.9,66.3,56,14.1,7.6,28.4,14.4,44.2,17.9,9.9,2.2,19.9,3.3,29.9,4.4,11.8,1.3,23.6,2.5,35.1,5.8,4.7,1.4,9.2,3.3,13,6.5,11,9.2,14,24.3,7.1,37.1-3.8,7.1-9,13.2-15.2,18.3-13.4,11-28.5,19-45.8,21.5-11.6,1.7-23.4,1.8-35-.7-12-2.6-21.6-9.8-30-18.4-12.3-12.6-23.8-25.8-34.6-39.8-6-7.8-12.8-14.6-20.8-20.5-13.2-9.8-26.3-19.7-38.2-31.1-10.2-9.7-19.7-19.9-28.3-31-12.2-15.7-26.4-29.7-39.2-44.8-8.5-10.1-18.3-18.5-29.5-25.3-8.4-5.1-17.2-9.1-27-10.9-10.1-1.8-19.9-4.7-30.1-6-8.4-1-16.5-.5-24.6,1.9-6.1,1.8-12,4.3-18.4,4.8-7.1.6-13.9-1-20.5-3.5-.7-.3-1.5-.8-2-1.4-2.8-4-7.1-5.1-11.3-6.1-13.6-3.4-27-2.5-40.4,1.4-32.3,9.4-55,30.6-72.1,58.5-10.1,16.5-16.6,34.6-22.6,52.8-5.4,16.2-9.8,32.7-15.7,48.7-4.4,12.1-9.6,23.8-17.1,34.4-10.4,14.6-23.7,25.9-39.7,33.9-14.9,7.5-30.3,13.6-47,15.7-12.6,1.6-25.3,2.9-37.8-.6-16.3-4.5-29.9-12.7-37.7-28.5-2.6-5.2-4-10.6-3.7-16.5.5-9.6,5.3-16.2,13.7-20.3,4.6-2.2,9.6-3.1,14.7-3.2,9.8-.2,19.5-.4,29.3-.7,13.9-.4,27.4-3.2,40.4-8.2,14.8-5.7,23.8-16.5,28.1-31.5,3.5-12.2,5.5-24.7,7.9-37.2,3.1-15.6,6.2-31.3,12.2-46.1,7.4-18.5,18.3-34.8,31.4-49.7,32.1-36.5,71.2-62.5,117.8-76.9,15.9-4.9,32.2-7.8,48.6-10.3,9.3-1.5,18.4-3.8,27.1-7.6,9.2-4.1,13.7-11.2,14.7-20.7.3-3.1,1.1-5.8,3.9-7.4,2.2-1.2,1.8-3.2,1.8-5.2.2-16.9.3-33.8.5-50.8.3-25.7.4-51.4,1.1-77.1.4-15.6.5-31.2.9-46.8.6-24.7,1.2-49.4,2-74.1.5-16.3,1.1-32.5,1.9-48.8,1.2-22.4,2.4-44.8,3.9-67.2,1.4-20.9,3-41.8,4.9-62.7,2.1-24.1,4.4-48.2,6.8-72.3,2-19.7,4.3-39.4,6.4-59.1.2-1.8.2-3.7.4-5.7-1.5.4-1.5,1.3-1.8,2-10,23-21.8,45.1-34.6,66.7-1.7,2.9-1.7,5.1-.3,8,6.4,13.9,9.6,28.7,9.9,43.9.2,10.8-2.1,21.3-4.5,31.8-7.2,31.4-18.3,61.3-35.3,88.9-10.5,17.1-21.5,33.8-33.2,50-20.8,28.6-43.4,55.8-69,80.2-31.9,30.4-67.5,55.6-108.6,72.5-18.6,7.7-37.9,12.3-58.1,13.6-18.5,1.1-36.3-1.7-53.5-8.2-9.7-3.7-18.3-9.2-24.8-17.5-2.1-2.7-3.9-5.6-4.9-8.9.9-1.3,2.2-1.8,3.7-2.2,26.9-8.5,53-18.7,78-31.8,1.6-.8,3.1-1.7,5-1.8,1.1,0,2,.4,2.3,1.7-2.6,6.7-8.2,11.2-12.7,16.4-5.9,7-13.1,12.6-20.8,17.6-1.2.8-3.2,1.6-2.3,3.2,1.1,1.8,3,.5,4.3-.3,9.4-5.4,17.1-13,24.2-21,7.6-8.5,14.9-17.2,21.6-26.4,2-2.7,4.7-4.4,7.5-6.2,23.6-15.2,45.4-32.6,66.2-51.5,12.5-11.4,24.4-23.5,36.2-35.6,7.7-7.9,15.2-16.1,22.6-24.3,1.5-1.7,3.2-4.6,5.8-3.5,2.3,1,1.4,4.1,1.4,6.3.4,28.1-4.2,55.4-14.4,81.7-.8,2-2.8,5.1-.3,6.1,2.6,1,3-2.8,3.7-4.7,9.1-24.3,14.3-49.3,14.3-75.3,0-5.4,0-10.7.3-16.1.4-5.6,2.9-9.8,6.5-13.8,14.4-15.7,28.2-31.9,41.8-48.4,13.4-16.1,25.8-33,38.1-49.9,1.3-1.8,2.4-4.9,4.9-4,2.7.9,1.8,4.2,1.6,6.5-1.4,23-3,46.1-6.7,68.9-.5,2.9-1.3,5.7-2.2,8.5-.4,1.2-.9,2.9.7,3.4,1.6.5,2.2-1.1,2.7-2.2,2.4-5.5,2.7-11.4,3.5-17.2,2.9-21.1,4.8-42.3,5.4-63.6,0-.8.2-1.7,0-2.4-2.7-9,.9-16.3,5.3-23.8,4.6-7.9,8-16.4,12.5-24.3.7-1.2,1.9-2.9.3-3.9-2-1.3-2.8.8-3.5,2.2-4.6,8.4-8.9,17-13.2,25.6-10.7,21.3-25.8,39.4-39.6,58.5-5.5,7.6-11.9,9.9-20.6,11-32.3,4.2-64.6,8.2-96.3,15.6-2.2.5-6.3.4-5.6,3.2.7,2.8,4.3.7,6.4.2,31.5-7.1,63.5-10.9,95.3-15.6.6,0,1.3-.2,1.9-.2,1.6,0,3.6-.3,4.5,1.3,1,1.7-.7,3-1.7,4.2-8.6,10.8-17.7,21.2-26.9,31.5-23.6,26.5-47.3,52.9-72.5,77.8-3.6,3.6-7.3,5.6-12.6,6.2-17.1,2-34.4,2.1-51.5,3.7-8.9.8-17.9.2-26.7,1.8-.8.1-1.6.1-2.4.4-.6.2-1.2.6-1.2,1.3,0,.8.7,1.1,1.3,1.2,2.3.5,4.5.4,6.8.1,9.9-1.1,19.8-1,29.7-1.8,12.1-.9,24.3-1.7,36.5-2.4,1.9-.1,4.4-1.1,5.3,1,.9,2-1.3,3.5-2.7,4.8-7.3,6.5-14.6,12.9-22.3,19-25,20-51.3,37.9-80.3,51.5-20.2,9.5-40.9,17.7-62.1,24.6-2.6.8-5.2,2.2-8,1.3-.6-6.7,1.7-12.5,5.4-17.8,4.9-7.1,10.8-13.5,16.7-19.7,20.9-22.2,39.6-46.1,55.5-72.2,11.4-18.8,22-38,32.6-57.2,13.9-25,27.3-50.3,42.6-74.5,13.8-21.7,28.6-42.7,47.7-60.2,20.6-18.9,43.8-33,71.2-39.6,15.2-3.6,30.7-5.2,46.4-4.8,3.9.1,7.8,0,11.7.1,1.6-1.2,3.4-.7,5.1-.4,5,.7,9.9,1.8,14.8,2.8,4.7.9,9,.3,12.8-2.7,1.7-1.6,1.5-4.2,2.9-5.9,6.1-6.5,9.8-14.5,14-22.2,12.2-22.3,23.9-44.8,31.7-69.1,2.9-9,5.4-18.1,6.3-27.5.5-4.7,1.3-9.4,6.5-11.7,1.9-.8,1.9-2.8,2.1-4.6,2.1-20,4.4-40.1,6.5-60.1,7-65.1,16.9-129.6,30.7-193.6.5-2.2,1-4.4,2.7-6.2,4.9-19.7,9.6-39.5,16.1-58.7,10.3-30.5,22.1-60.5,38.1-88.6,18.1-31.8,41.5-59,72.5-79.1,18.5-12.1,38.7-19.8,60.5-23.4,13.2-2.2,26.4-4.3,39.7-3.6,36.8,1.8,69.6,13.4,94.3,42.1,13.4,15.6,24.2,33,32.5,52,9.8,22.4,17.7,45.4,22.2,69.5,2.1,11.4,3.5,22.8,4.4,34.3,2.3,27.4,2.2,54.9,2.2,82.4,0,7.6.4,15.3.6,22.9,0,1.3,0,2.4,1.5,3.2,13,7.4,26,14.8,39.5,21.3,25.6,12.2,52.1,21.9,80,27.6,13.1,2.6,25.9,6.4,38.5,10.7,6.8,2.3,13.2,5.4,19.2,9.4,11.4,7.4,15.4,17.8,13.5,31.1-1.4,10.2-6.8,17-16,21-7.3,3.2-14.9,4.4-22.8,4.9-3.2.2-6.5.2-9.7.3-4.1,2.4-8.4.3-12.4-.1-16-1.9-32-4.3-47.2-10-19.4-7.2-38.1-16-55.7-26.9-4.8-3-4.6-3.1-5.8,2.7-2.8,13.6-7.9,26.1-17,36.9-9.9,11.8-23.7,11.1-32.4-1.5-4.3-6.2-7.4-13-9.3-20.3,0-.5-.1-.9-.2-1.4,0-.2-.2-.4-.3-.6,0,.1-.3-.3-.2.1,0,.2.2.5.3.7-2.1,6.9-6,12.7-10.8,17.8-10.6,11.5-25.7,8.2-30.7-6.7-1.7-5.1-2.6-10.4-2.5-15.8,0-3.5.4-7.1-1.2-11.1-9.8,8.9-20.4,16.3-30.9,24-8.8,6.5-17.6,12.8-27.1,18.2-23.5,13.4-48.2,15.7-73.9,7.7-1.2-.4-2.5-.8-3.7-1.2-7.6-2.9-15-6.3-21.5-11.3-3.7-2.8-6.5-6.4-8.4-10.6-3-6.5-.9-12.3,5.3-15.7,1.3-.7,2.7-1.2,4.1-1.7,25.1-8.8,48.7-20.9,71.4-34.7,19.2-11.6,38.4-23.3,58.4-33.6,12.9-6.6,26.2-12.3,40.1-16.5,11.4-3.4,11.4-4.2,11.8-16.2.8-25.5-1.7-50.7-5-75.8-.9-5.4-1.5-10.8-2.4-16.2-3-29.2-9.4-57.7-19.5-85.3-4.2-11.4-9.4-22.2-17.2-31.6-15.7-18.8-36.2-26.7-60.2-24.3-20.3,2-37.2,11.6-52.1,25.3-16.2,15-28.4,32.8-38.7,52.2-13.8,25.7-25,52.5-34.1,80.2-9.9,28.5-17.4,57.6-23.9,87.1-3.9,18.5-7.7,37.1-11.1,55.8-.4,1.3-.7,2.7-.7,4-6.7,39.2-12.7,78.5-18,118-1.4,10.6-2.6,21.3-4.1,31.9-.3,1.9-.1,4-1.7,5.4Z"/>
        <path class="cls-4" d="M1681.4,1178.9c5.5-5.6,6.5-12.5,5.9-19.9-.5-6.5-2.6-12.7-3.7-19.1-3.3-18.1-3.3-36.2-1-54.4,3.8-29.6,15.9-56.1,30.5-81.7,15.2-26.7,33.7-51,54.1-73.9,29.5-33.2,58.4-66.9,86.1-101.7,12.9-16.2,24.3-33.4,36.1-50.4,3.2-4.5,6.4-9,9.7-13.4,1.6-2.1,3.2-4.1,5.2-5.8,4.8-4.4,11.1-4.2,15.8.3,3.5,3.4,5.6,7.6,7.3,12,5.4,14,8.5,28.6,11.6,43.2,5.3,25,6.3,50.3,4.7,75.7-4.5,69.3-28.7,131.3-71.3,186.1-20.6,26.5-44.2,49.9-71.1,70-11.8,8.8-24.4,16.1-38.2,21.3-13.2,5-26.8,6.9-40.7,5.5-7.8-.8-13.6.9-18.8,7-6.3,7.4-14.1,13.4-20.6,20.8-4.5,7.4-11.4,12.4-18,17.7-11.9,9.5-24.8,17.3-39.8,20.9-2.7.7-3.6,2-3.4,4.8,1.4,21.4,3.7,42.7,5.7,64,2.3,24.3,5.1,48.5,8.2,72.6,3.8,29.8,11.8,58.3,27.6,84.2,2.3,3.8,5.6,5.7,9.7,6.9,5,1.4,10.3,2.2,15.4,2.3,8.9.1,17.8,1.7,26.8,1.2,7.3-.4,14.6,1.4,21.9,1.1,1,0,1.9.4,2.8.9,14,1.1,27.8,3.2,41.2,7.3,15.6,4.8,29.8,12,41.3,24,12.7,13.3,18.9,29.2,19.4,47.6.5,19.7-4.2,38.3-10.7,56.7-6.1,17-14,33.2-22,49.4-8.9,17.9-18.6,35.4-26.6,53.8-5.6,12.8-10.8,25.8-12.6,39.8-1.7,13.7-1,27.3,4,40.4,4.7,12.4,13.7,21.2,24.4,28.4,2.8,1.9,5.9,3.4,8.9,5.1,2.3,1.3,4.6,2.5,6.8,3.8,7.1,4.3,9.1,11.4,6.3,20-1.1,3.5-3.4,6.3-6.1,8.7-7.3,6.7-16.1,10.4-25.8,11.7-7.1,1-14.3.7-21.4-.1-7-.8-13.6-3.2-19.7-6.7-6.8-3.8-13.3-8.2-19.2-13.3-16-13.9-24.1-31.3-24.5-52.6-.4-20.3,3.4-39.8,9.6-58.9,3.2-9.9,6.8-19.6,10.4-29.4,6.8-18.5,12.2-37.4,16-56.7,1.7-8.6,3.2-17.3,3.5-26-1.1-5.7.5-11.3,1-16.9,1.5-17.7.5-35-4.7-52.1-6-19.7-20.2-29.4-39.5-33.2-6.5-1.3-12.9-.1-19.3.7-2.5.3-5.1,1.3-7.7.3-13.6,3.2-26.8,7.3-39.5,13.1-2.2,2.4-5.1,3.3-8,4.5-5.1,2.1-9,5.5-10.2,11-2.2,9.6-8.3,16.2-16.4,20.8-9.7,5.5-20.2,8.8-31.7,7.8-22.1.2-43.7-3.7-65.2-8.1-19.9-4.1-40-7.5-60.4-6.6-15.6.7-30.6,4.2-44.9,10.4-16.6,7.1-28.1,19.6-36.5,35.2-6.3,11.7-10.2,24.3-12.3,37.4-2.4,14.6-3.8,29.3-3.1,44.2.6,11.6,3.1,22.8,5.3,34.2,4.2,20.9,7,42,6.5,63.4-.3,10.6-2.3,20.6-7,30.1-4.5,9.1-11.3,15.8-20.4,20.3-11.9,5.8-24.5,7.4-37.5,5.9-7.8-.9-15.4-2.6-22.7-5.5-5.5-2.2-10.6-5-14.7-9.4-8.1-8.7-9.6-18.9-6.3-29.9,1.3-4.4,4.4-7.6,8.3-9.8,5-2.8,10.4-3.6,16-3.1,5.7.5,11.3,1.7,17,1.6,8.5-.2,13.5-3.8,16.6-11.8,2.6-6.7,1.5-13.5.2-20.2-2.5-13.5-7.2-26.3-10.7-39.5-3.3-12.1-6.7-24.1-8.5-36.5-4.1-28.1-2.5-55.7,7-82.7,11.1-31.7,29.8-58,56.1-78.8,14.1-11.2,30.6-16.8,48.4-18.9,13.7-1.6,27.3-.2,40.8,1.6,12.9,1.7,25.8,3.4,38.7,4.5,11,1,22,2.1,33.1,1.7,11.6-.5,22.5-3,32.4-9.4,6.3-4.2,11.8-9.2,15.7-15.8.7-4,3.7-6.9,4.9-10.6,3.4-10.4,6.8-20.7,2.6-31.8-1.3-3.4-.1-6.8,2.7-9.3,2-1.8,2.7-3.9,2.6-6.5-.5-15.4-.7-30.9-1.8-46.3,0-1.1-.2-2.3-.2-3.4.6-16.3-.5-32.5-1.2-48.8-1-22.9-1.7-45.8-3.5-68.6-.2-2.9-.1-5.9-.1-8.8,0-2.6-1.1-4.3-3.8-4.9-22.7-5-39.5-19-54.5-35.8-3-3.4-6.4-6.4-8.9-10.3-1.4-2.1-3.5-2.9-5.9-2.7-15.8,1.4-30.2-3.4-44.3-9.7-6.5-2.9-13.3-5.3-20.2-7.4-2-.6-4.1-1.2-5.6-2.9-9.4-3.6-18.8-7.1-28.2-10.9-16.9-6.9-32.2-16.3-44.9-29.6-12.4-13-21.3-28.3-28.3-44.7-9.4-21.9-15.6-44.8-20.6-68-6.7-31.1-13-62.3-19.6-93.5-4.3-20.3-9.1-40.6-16.4-60.1-1.7-4.6-3.3-9.2-3.2-14.2,0-8.6,5-14.4,13.5-15.9,9-1.7,17.9-.8,26.7.6,21.3,3.2,40.9,11.5,60.2,20.7,40,19,74.9,45,104.7,77.8,13.7,15.1,26.4,30.9,36.3,48.9,10.2,18.6,16.5,38.5,19.7,59.4,2.8,18.4,3.3,36.9,2.6,55.5-.8,20.1-2.8,40.2-5.3,60.2-1.1,9.2-2.4,18.4-2.8,27.6.7,4,3,7,5.7,9.9,7.3,7.8,15.5,14.6,24.3,20.6,1.2,1,2.5,1.8,3.8,2.8h0c.3.3.7.6,1.1.9,3.5,2.3,7.3,3.4,11.4,4.2,3,.6,3.1.5,3-2.4-.3-6.5-.6-13-1.1-19.5-1-15.1-1.7-30.2-1.9-45.3,0-4.9-.4-9.7-.5-14.6-.2-23.8.7-47.5,2-71.2,1.4-24.2,3.7-48.3,6.3-72.4,1.8-16.5,3.3-33,5.3-49.4,2.4-20.5,5.7-40.9,9-61.2,2.2-13.6,4.4-27.3,6.2-41,1.9-13.7,4.7-27.2,6.5-40.9,2-14.8,3.6-29.7,3.5-44.7,0-1,.1-2-.6-3.2-7.5,1.5-15.2,2.2-23,1.9-22-.7-42.2-6.9-60.8-18.7-21-13.3-40.5-28.3-58.2-45.8-10.9-10.7-22-21.3-33.9-30.9-11.8-9.5-24-18.4-37.9-24.7-.7-.3-1.5-.7-2.1-1.2-4.7-3.1-5.8-8.6-2.5-13.2,2.2-3,5.2-4.9,8.6-6.1,3-1.1,6.1-2.1,9.2-3.1,2.8-2.4,6.3-2.2,9.7-2.4,15.5-.9,30.5,1.7,45,7,37.9,13.7,72.2,33.5,103.2,60.9-2.8-11-2-21.4-1.9-31.8,0-9,2.5-17.4,7.5-24.9,7.8-11.9,19-14.5,31.2-7.3,11.2,6.7,19.3,16.3,25.5,27.7,1,1.8,1.5,4,3.4,5.6,2.2-1.8,2.9-4.6,4.1-7,4-8.1,8.8-15.5,15.6-21.6,12.9-11.5,34.5-9.6,43.4,4.5,5.6,8.8,8.6,18.6,9.4,29,.2,2.8.3,5.5,1.2,8.7,4.9-3.7,8.8-8.2,13.2-12.2,14.3-12.7,30.5-22,48-29.5,17.4-7.4,35.5-12.8,54-16.9,2-.4,4.1-1.3,6.2-.2,14-2.6,28.1-5.3,42.1-7.8,8.2-1.4,16.3-3.1,24.7-2.6,7.8.5,11.9,6.4,9.7,13.9-.5,1.7-1.2,3.4-2,4.9-1.7,3-3.5,5.9-5.4,8.7-16.8,25-38.2,45.5-61.9,63.8-23.2,17.9-47.2,34.6-72.6,49.3-10.9,6.3-22.3,11.4-34.9,13.2-11.4,1.6-22.7,1.3-33.6-3.1-3.3-1.3-6.9.2-7.5,3.5-.8,4.8-3.1,8.9-5.2,13.1-7.5,15.2-12.9,31.2-16.5,47.8-4,18.6-9.4,36.8-12.7,55.6-2.4,13.1-4.3,26.3-6.4,39.4-2.5,15.9-5,31.8-7.4,47.7-2,13.2-3.6,26.4-4.5,39.7-.2,2.7-1.1,5.5-.5,8.2,1,1.4,1.1,3.1,1,4.7-1,14.8-1.3,29.5-2.4,44.3-.7,9.4-.8,18.8-1.1,28.2-.5,13.5-1.5,27-1.2,40.4.2,8.8-.9,17.5-1,26.3-.2,20.5,1,40.9,1.9,61.4.2,4.2,1,4.8,5.2,3.4,13.8-4.8,25.4-13,36.1-22.7,6.8-6.2,13.5-12.6,20.1-19.1Z"/>
        <path class="cls-7" d="M1817.5,616.7c-14.9,3.4-29.7,7-44.1,12.2-13.8,5-27.2,10.9-39.9,18.2-12.8,7.4-23.7,17.1-34.3,27.3-1.2,1.1-2.4,2.2-3.5,3.3,0,0-.3,0-.9,0-.3-3-.8-5.9-.9-8.9-.5-9.9-3.3-19.2-7.8-28-6.2-11.9-21.5-17.3-34-12.2-7.2,2.9-12.6,7.9-17,14.1-4.1,5.7-7.2,12-10.3,18.2-.6,1.2-.9,2.7-2.6,3.8-.9-1.8-1.8-3.5-2.7-5.2-5.3-10.7-12.6-19.7-22-27-3.6-2.8-7.5-5.1-12.1-6.1-6.9-1.6-12.9-.2-18,4.8-5.9,5.8-9.2,13.1-10.4,21.1-2,12.6-1.6,25.3.5,37.9.2,1.4.5,2.8,1,5.3-3.9-3.2-7-5.9-10.2-8.5-29-24-61.3-42.2-96.8-54.6-12.9-4.5-26.3-7.2-40.2-6.7-4.3.1-8.4,1.1-12.6,1.4-8.7-15.9-15.9-32.4-21.3-49.7-3.6-11.6-7.4-23.2-9.4-35.3-.8-5-1.4-9.9-1.6-15-.5-15.1.8-30.2,1.1-45.3.2-16.4-.8-32.8-2.7-49.1-1.4-12.2-3.9-24-8.1-35.5-3.6-9.7-8.5-18.6-16.4-25.6-2.4-2.2-5.1-4.1-7.8-5.8-2.6-1.7-5.1-1.9-7.8-.3-.4.3-.9.5-1.3.7-7.6,3.9-11.8,1.9-14.3-6.1-3.2-10.1.1-18.9,5.4-27.3,6.5-10.4,15.3-18.5,25.2-25.5,18.4-13.2,39.1-21.1,61.4-24.8,8.2-1.4,16.5-2.2,24.7-2,15.3.5,30.4,2.4,44.7,8.6,12.2,5.2,22.4,13,31.2,22.9,3.1,3.5,6,7.2,8.8,10.9,1.9-1,1.8-2.9,2.3-4.3,7.7-19.9,18.1-38.2,33.5-53.3,14.6-14.3,32.2-23.2,52.5-25.8,27.7-3.5,52.8,3.2,74.8,20.9,13.2,10.6,22.4,23.8,27.5,40,.3,1,.3,2.3,1.4,3,1.4,0,1.8-1.2,2.5-2,4.9-5.6,10.1-11.1,16.1-15.6,16.8-12.5,34.7-23,54.8-29.3,11.3-3.6,23-5.3,34.9-6.6,7-.7,13.9-1,20.9-.7,27.7,1,53,9.1,74.9,26.6,3.2,2.5,6.3,5.1,9.4,7.8,2.1,1.9,3.7,4,3.7,7.1,0,3.3-1.2,5.9-4.4,6.9-2.4.8-3.8,2.3-5.2,4.1-8.3,11.1-13.6,23.6-18.8,36.3-10.2,24.9-17.1,50.7-21.7,77.2-3.5,20-8.3,39.7-12.1,59.6-3.3,16.9-6.1,33.8-9.3,50.7-4.1,21.9-8.2,43.7-16.5,64.5-3.1,7.9-7.2,15.3-11.7,22.5-.9,1.4-1.6,2.8-2.4,4.2Z"/>
        <path class="cls-7" d="M848.1,763.9c8,2.1,16,4,24.2,5,12.9,1.5,25.2-.7,37.3-4.8,9.2-3.1,17.5-7.8,25.4-13.3,14.3-9.9,28.5-20,41.9-31,2.5-2,4.8-4.3,7.5-6.7.8,3.4,1,6.4,1,9.4,0,6.3.4,12.6,2.2,18.8.9,3,2.2,5.8,4.1,8.2,4.9,6.3,13.4,7.7,20.1,3.4,4.3-2.8,7.4-6.7,10.2-11,2.3-3.6,4.3-7.3,5.9-11.2.2-.4.4-.4.7-.1h0c.4.3.6.6.8,1,1.9,5.9,4,11.7,7.2,17,1.2,2.1,2.6,4.2,4.1,6,8,9.4,19.6,9.7,27.8.4,8.4-9.6,13.6-21,16.7-33.3.9-3.7,1.5-7.5,2.3-11.4,2.2.4,3.4,1.8,4.9,2.7,18.7,11.6,38.4,21.2,59.1,28.6,12.6,4.5,25.8,6.6,39,8.4,6,.8,11.9,1.4,17.9,2.2,11.1,26.3,18,53.8,22.6,82,2.6,15.8,4.5,31.8,6.5,47.7,1.4,11.1,2,22.3,3.3,33.4,2,17.1,4.3,34.1,7.2,51.1,3,17.3,5.8,34.6,9.9,51.6,3.9,16.3,8.9,32.2,15.3,47.7,5,12.1,11.3,23.4,18.7,34.2.7,1.1,1.4,2.2,2.1,3.3,7.3,11.5,4,21.5-6.8,28.9-4.8,3.3-10,5.3-15.5,6.9-13.1,3.7-26.5,6.4-39.9,8.7-12.4,2.2-24.9,2.6-37.4,1.8-13.4-.9-26.9-1.8-39.5-7.4-13.6-6.1-26.3-13.4-36.7-24.4-.4-.5-.9-1-1.9-.9-.7,0-.9,1-1.3,1.7-9.4,17.8-23.6,30.3-41.9,38.4-8.2,3.7-16.6,6.5-25.5,7.8-10.6,1.5-21.1,1.2-31.5-.5-13.5-2.2-25.9-7.4-37.1-15.4-10-7.1-18-16.4-25.4-26.1-4.5-6-8.2-12.5-11.8-19.7-1.5,1.7-2.7,3.1-3.8,4.5-12.2,15.3-27.1,27-45.5,34-7.5,2.9-15.4,4-23.2,5.2-14.2,2.1-28.5,3-42.8,2.2-13.9-.8-27.2-4.4-40-9.8-6.5-2.7-12.7-5.8-18.2-10.3-3.6-2.9-6.5-6.4-8.3-10.7-2.3-5.1-1.6-10.8,2.5-14.3,13.1-11.4,21.2-26.2,28.2-41.7,5.7-12.6,10.6-25.5,14.9-38.6,4.6-13.7,7.3-27.9,9.3-42.3,2-14.2,3-28.4,2.7-42.7,0-2.1,0-4.2-.8-6.3-.6-2.2-.6-4.5-.6-6.7,0-14.6,0-29.2,0-43.8,0-8.9,1.2-17.8,1.3-26.7,1.9-8.1,2.4-16.4,3.9-24.5,3.9-21.4,11.2-41.7,21.9-60.7,1.2-2.2,2.1-4.9,4.9-5.8Z"/>
        <path class="cls-8" d="M579.3,975c-4.1,3.6-8.8,4.5-14,3.2-6.6-1.6-13.3-2.8-20-3.8-1.2-12.1-2.4-24.3-3.5-36.4-.8-8.1-1.5-16.2-2.2-24.3-1.7-20.2-3.6-40.5-5.7-60.7-1.6-15.5-2.9-31.1-4.3-46.6-2-22-3.8-44-6-66-.7-6.9-1.6-13.9-3.5-20.6-3.1-11-5.9-12.7-17.2-11.4-16.9,2-33.8,4.3-50.9,5.6-17.3,1.3-34.7,2.2-52.1,3-20.8.9-41.6.7-62.5.3-18.5-.4-37.1-.7-55.5-2.7-4.7-.5-9.3-1.2-14-2-1.9-.3-3.8-.9-5.6-1.7-4.8-2.3-6.3-7.2-3.8-11.9,1.6-2.9,4.1-5,6.7-7,5.8-4.3,12.5-7,19.1-9.6,14.7-5.6,30-9.8,44.8-15.1,21-7.4,41.8-15.4,63.1-21.9,26.3-8,52.9-14.9,79.5-21.5,2.2-.5,4.4-1.1,6.9-1.8-1.1-2.9-3.1-4.5-4.9-6.3-20.6-20.2-38.5-42.8-56.2-65.5-16.2-20.7-29.4-43.3-42.4-66.1-10.3-18.2-20.7-36.5-28.6-56-3.5-8.6-6.8-17.3-8.8-26.3-.2-.9-.5-1.9-.6-2.9-1.1-8.9,4.7-14.7,13.7-13.7,6,.7,11.3,3.1,16.4,5.9,9.6,5.1,17.8,11.9,26,19,12.8,11.1,25,22.8,36.8,35,27.8,28.6,55.4,57.3,83.8,85.4,4.2,4.1,8.5,8,12.9,12.2,1.3-.5.7-2,1-3.2,9.2-42.2,15.7-85,23.4-127.5,5.5-30.4,11.6-60.6,17.9-90.9,4.4-21,8.8-42,13.2-63,.5-2.5,1.3-5,2.1-7.5.6-1.8,1.3-3.7,2.3-5.4,3.6-6.2,10-7,15-1.7,2.5,2.7,4,5.9,5.2,9.3,2.7,7.7,4.3,15.7,5.8,23.7,3.9,20.5,6.5,41.1,8.9,61.8,5.5,46.7,12.6,93.1,22,139.1,6.4,31.4,11.7,62.9,17.1,94.5,1.4,8.4-.6,7.9,8.4,5.2,4.2-1.3,8.3-2.7,12.5-4.1-3.3,16-6.8,32.1-9.8,48.2-4.2,22.5-7.9,45-11.4,67.7-3.1,20.5-5.7,41.1-8.4,61.7-1,7.7-1.5,15.5-2.8,23.2-3.7-1-5.7-4.2-8-6.9-8-9.6-16.8-18.5-25.8-27.2-1.5-1.5-3.3-2.7-4.9-4-1.9-1.4-2.9-1-3.2,1.3-.3,2.6-1,5.1-1,7.7,0,15.1,0,30.2-1,45.3-1.4,20.6-3.1,41.1-5.4,61.7-4.1,37.2-10.3,74.1-17.2,110.9-.4,2.1-.7,4.2-1.8,6-1.3,1.9-.4,4.4-1.6,6.3Z"/>
        <path class="cls-8" d="M1421.3,1182.6c10,2.3,19.5,6.2,28.9,10.1,8,3.3,15.9,6.5,24.5,7.9,5.3.9,10.7,1.1,16,.5,4-.4,6.2,1.2,8.5,4.1,8.2,10.7,17.5,20.4,28.4,28.5,4.9,3.7,10.2,7,15.5,10.1,5.9,3.4,12.3,5,18.9,6.2,3.6.6,3.6.7,3.8,4.4.7,15.7,1.3,31.5,2.2,47.2,1.5,27.6,2.4,55.2,3.1,82.8.4,16.1,1.1,32.2,1.7,48.2.1,2.8.2,5.2-3.1,6.8-3,1.5-3.5,5.1-2.4,8.7,4.9,15.6.3,29.3-8.8,42-1.3-9-2.3-18-4.4-26.9-.4-1.7-.8-3.5-1.4-5.2-2.2-6.8-5.7-9.4-12.8-9.9-4.1-.3-8.1-.2-12.2,0-21,1.1-41.5-2.4-62-6.2-31.6-5.8-63.3-11.4-95.2-15.5-16-2.1-31.9-4.5-47.8-6.8-2.4-.3-4.8-.7-7-1.9-4.6-2.4-5.2-7.5-1.2-10.8,2.4-2,5.3-3.2,8.3-4,11.4-3.4,22.8-6.7,34.1-10.1,24-7.2,47.8-14.8,72.2-20.4,21.8-5.1,43.9-9.1,65.9-13.3,2.9-.5,5.7-1.1,8.6-1.8,3.1-.7,3.2-1,1.8-3.9-2-4.1-4.6-7.9-7.3-11.5-7-9.6-13.6-19.5-19.6-29.7-18.6-31.8-34.9-64.7-47.9-99.1-3.8-10-7.1-20.2-9.4-30.7Z"/>
        <path class="cls-8" d="M1739.6,1477.2c-13,.4-26-.4-39-1.2-6.5-.4-13-.4-19.5-1.2-4.9-.6-9.6-1.6-14.1-3.7-1.9-.9-3.2-2.1-4.2-3.8-12.4-21.4-21.8-43.8-25.8-68.5-2.8-17-5-34.1-6.9-51.2-2.2-20.7-4.4-41.3-6.5-62-1.4-14.7-2.6-29.4-3.9-44.2-.2-1.7.2-2.7,2.1-3.1,17.1-3.2,31.3-12.3,44.5-23.1,5.6-4.6,10.9-9.7,16.3-14.6.8,11.5,1.6,23,2.3,34.6,1.5,25.3,2.9,50.7,4.3,76,.3,6.2.3,12.4.5,18.5.2,5.1.6,5.7,5.6,7,8.4,2.2,16.9,3.2,25.5,4,32.9,3,65.7,6.4,98.5,10.6,27.4,3.5,54.8,7,82,12,8,1.5,15.9,3.3,23.8,5.1,2.5.6,5.1,1.2,7.2,2.8,4.2,3.1,3.9,8.2-.7,10.7-2.2,1.2-4.6,1.6-7,1.9-9.5,1.2-19.1,1.5-28.7,2.1-29.2,1.8-58.4,4-87.4,8.4-22.3,3.4-44.7,6.6-67,10-5,.8-9.9,1.7-14.8,2.8-3.9.9-4.3,1.3-3.9,5.3.7,7.3,2.6,14.4,4.6,21.4,3.9,14.4,7.9,28.8,11.9,43.3Z"/>
        <path class="cls-8" d="M818.8,853.7c0,6.2-.2,12.3-.8,18.4-.5,5.5-.4,11-.5,16.6,0,12.7,0,25.4,0,38,0,1.8.4,3.6-.7,5.2-12.6-7.5-24.1-16.4-35.5-25.6-20-16.1-38.7-33.7-57.2-51.5-1.3-1.2-2.7-2.4-4-3.5,0-7.3,1.5-14.5,2.4-21.8,2-15.8,4.1-31.5,6.4-47.3,3-20.2,6.1-40.4,9.2-60.6,1.4-8.8,3-17.6,4.5-26.4.5-1,1.2-1.6,2.4-1,2.1,1.3,2.9,3.4,4,5.4,14.9,28.7,27.8,58.3,41.1,87.8,9.1,20.1,18.3,40.2,27.1,60.4.5,1.2,1.1,2.3,1.3,3.6,0,.5,0,1,0,1.5,0,.2,0,.5,0,.7Z"/>
        <path class="cls-8" d="M1681.4,1178.9c-.8,2-1.9,3.7-3.5,5.2-7.4,7.3-14.9,14.6-22.9,21.2-8,6.5-16.7,11.8-26.3,15.7-2.1.8-4.3,1.6-6.5,2.1-3.1.8-3.3.6-3.5-2.6-.4-7.6-.9-15.3-1-22.9-.3-14.5-1.5-28.9-.8-43.4.7-14,.3-28,1.4-41.9.4-4.7.2-9.4.3-14.1.7-17.7,1.3-35.4,2.1-53.1.5-11,1.4-22.1,2.1-33.1.8-1.8,1.6-3.6,2.3-5.4.9-2.1,1.9-4.1,3.5-5.8,4.1-4.6,9.2-4.9,13.7-.8,2.5,2.2,4.1,5.1,5.6,7.9,3.7,6.9,6.3,14.2,8.7,21.7,7.8,24.9,13.1,50.3,16.7,76.1,3.5,24.3,5.7,48.7,8,73.2Z"/>
        <path class="cls-11" d="M215.4,1320.3c7.7-2.6,15.4-5.1,23-7.9,26.5-9.5,52.3-20.7,76.5-35.2,19-11.4,36.9-24.3,53.9-38.5,6.5-5.4,12.9-11,19.2-16.5.9-.8,2.2-1.4,2.4-3.5-6.5,1.6-13,.8-19.4,1.5-1.8.2-3.5.4-5.3.5-9.1.6-18.1.7-27.2,1.9-.6,0-1.3,0-1.9,0-6,.4-12-.2-18,.9-1.9.4-3.9.2-5.8.2-1.9,0-3.7-.4-3.7-2.8,0-2.1,1.5-2.8,3.2-3,3.2-.4,6.4-1,9.7-1,13.8,0,27.5-1.7,41.3-2.3,11.3-.5,22.6-1.8,33.9-2.6,1.6-.1,2.8-.8,3.8-1.8,9.7-9.8,19.8-19.3,29-29.6,4.7-5.4,9.8-10.4,14.7-15.7,10.8-11.7,21.6-23.5,32.1-35.4,10-11.4,19.7-23,29.5-34.5.2-.2.1-.6.2-1.1-3.7-1.1-7.4.3-10.9.8-22.1,3.2-44.3,6.4-66.3,10-9,1.4-17.8,3.7-26.6,5.6-.8.2-1.6.5-2.4.6-1.9.3-3.3-.6-3.7-2.3-.4-1.6.6-2.8,2.1-3.5.7-.3,1.5-.6,2.3-.8,12.9-3.1,26-5.7,39.1-7.8,9.8-1.6,19.5-3.4,29.3-4.5,11-1.2,21.8-3.2,32.8-4.4,2.9-.3,5.8-1,8.7-.8,1.6.1,2.8-.7,3.7-1.9,11.7-15.4,24.1-30.3,34.6-46.6,8.3-12.9,15-26.6,21.8-40.3,1.1-2.2,2.1-4.4,3.4-6.5.9-1.6,2.2-3,4.4-1.9,1.9.9,2.3,2.7,1.1,5-5.7,11-11.3,22-17.2,32.8-2,3.7-2.9,7.2-2,11.5,1.3,6,.7,12.3.3,18.5-.2,2.4-.5,4.8-.6,7.3-.4,10.4-1.5,20.7-2.8,31-1,8-2.1,16.1-3.1,24.1-.4,3.3-1.5,6.3-2.8,9.3-1.1,2.4-2.9,3.3-4.6,2.4-2-1.1-1.9-3-1.3-4.7,4.2-10.3,4.1-21.3,5.6-32,1.8-13.5,3-27.1,3.2-40.7,0-3.8.9-7.6.5-11.4-1.8,0-2.1,1.3-2.7,2.2-9.6,14.1-20.5,27.2-30.5,41.1-3.1,4.3-6.6,8.1-10,12.1-8.1,9.8-16.4,19.4-24.6,28.9-6.7,7.7-13.5,15.4-20.2,23.1-.8.9-1.5,1.7-1.6,2.9-.3,3.4-.8,6.8-.8,10.2-.1,10.6.1,21.1-1.1,31.6-2.4,20.4-7.2,40.2-14.9,59.3-1,2.4-2.8,3.4-4.5,2.4-1.9-1-2-2.7-1.3-4.6,1.2-3.2,2.4-6.4,3.5-9.6,5.3-14.7,8.5-29.9,10.6-45.4,1.5-11.3,1.8-22.6,1.8-34,0-.7.3-1.6-.5-2.1-2.8,2.6-5.9,5-8.4,7.9-15.9,17.9-32.6,35-50,51.4-20,18.8-41.4,36.1-64.1,51.6-.1,0-.3.2-.4.3-10.3,4.8-16.6,13.6-23.4,22.2-9.9,12.3-20,24.5-33.1,33.5-1.9,1.3-3.8,2.5-5.8,3.5-2.4,1.2-4.2.8-5-1.1-.9-2.1.4-3.4,2.1-4.3,8.8-5.1,16.3-11.8,23.1-19.3,4.3-4.7,8.2-9.6,12.3-14.5.2-.5.7-1.3,0-1.5-.6-.2-1.5-.1-2.1.5-25.1,13.3-51.3,23.8-78.2,32.7-2.8.9-5.6,1.6-8.4,2.4-.6-1.9-1.6-3.7-1.1-5.8Z"/>
        <path class="cls-8" d="M1566.7,1585.8c5.2-1.2,10.6-1.1,15.7-2.8,3.2-1,6.5-2,9.7-3.2,7.9-2.9,13.6-8.5,18.7-15,1.2-1.6,1.6-3.5,1.9-5.4,1.1-7,5-11.8,11.7-14.3,2.9-1.1,5.5-2.9,8.6-3.4-3.4,16.7-8.1,33.1-12.3,49.7-5.6,22.1-9.4,44.5-13.8,66.8-2.7,13.7-5.3,27.4-8.8,41-.4,1.7-.9,3.5-1.7,5.1-2.9,6.2-9,6.7-13.1,1.1-1.3-1.9-2.2-4-3-6.1-2.9-8.2-4.4-16.6-5.7-25.2-3.6-24.6-5.5-49.4-7.1-74.2-.3-4.7-.6-9.4-.9-14.1Z"/>
        <path class="cls-8" d="M1672.4,1528.7c14.5-4,28.8-4,42.7,2.6,11.3,5.3,19.2,13.7,23.6,25.3,4.4,11.5,6.2,23.5,6.8,35.7.5,12-.7,24-2.2,35.9,0,.6-.4,1.2-.6,1.8-9.4-11.2-17.8-23.2-26.2-35.2-15.2-21.7-30.2-43.5-44.1-66.1Z"/>
        <path class="cls-14" d="M1545.3,1227.6c-11-6.2-19.9-14.8-28.2-24.2-2-2.2-2.4-4.5-1.7-7.1,10.8,9.6,21,19.8,31,30.3.1.9-.1,1.3-1.1,1Z"/>
        <path class="cls-3" d="M1545.3,1227.6c.4-.3.7-.7,1.1-1,1.2.7,2.3,1.6,2.8,3-1.7.1-2.8-.8-3.9-2Z"/>
        <path class="cls-3" d="M1550.3,1230.5c-.6,0-1-.3-1.1-1,.6,0,.9.4,1.1,1Z"/>
        <path class="cls-8" d="M778.1,549.3c74.5-9.4,149.6-12.3,224.5-17.1,1.3,5.5,1.8,11.1,2.3,16.7-35.9,15.4-73.1,27.1-109.9,40-27.8,9.8-55.1,20.6-83.1,29.7-18.2,5.9-36.6,11.3-55,16.9-.8.2-1.6.3-2.4.5,3.1-16.4,7.4-32.5,11.8-48.6,3.5-12.8,7.2-25.6,11.8-38Z"/>
        <path class="cls-11" d="M863.7,1343.5c5.6,5.4,11,10.6,16.4,15.7,1.3,1.2,2.7,2.3,4,3.6,14.9,15,30.6,29.1,46.1,43.6,16.7,15.7,33.9,30.8,50.9,46.2,2,1.9,4.2,3.6,6.2,5.5,1.9,1.7,3.4,3.9,6.6,3.3,1-.2,2.4.9,3.5,1.5,14.7,7.7,30.1,13.8,45.5,20.1,4.2,1.7,8.7,2.7,13.2,3.4.8.1,1.7,0,2.4.4,1.3.5,2.4,1.4,2.2,2.9-.2,1.6-1.2,2.7-2.9,2.7-2.4,0-4.8,0-7.3-.5-9.3-2.1-17.8-6.1-26.5-9.8-5.5-2.3-11-4.7-17.7-7.5,1.3,1.5,1.8,2.4,2.6,3,9.9,8,18.8,17,28.1,25.6,8.4,7.7,17.2,14.9,25.8,22.3,4.5,3.8,8.8,7.7,13.2,11.6.4.3.7.7,1,1,1.9,2.1,2.4,4.6.9,5.5-2,1.3-3.6.4-5.2-1-5.3-4.8-10.5-9.7-16.1-14.1-16.4-13.1-31.2-28-46.9-41.9-16.3-14.4-32.5-29.1-48.6-43.7-9.9-8.9-20.1-17.5-29.7-26.8-1.4-1.3-2.9-2.4-5.2-3,1.4,2.8,2.7,5.7,4.4,8.5,13.6,23.1,26.4,46.7,38.6,70.6,4.2,8.3,9.8,15.7,15.6,22.9,2.3,2.9,2.6,4.6,1.1,5.9-1.6,1.5-3.7.7-6.1-2.1-8.9-10.3-15.5-22.1-21.6-34.1-9.9-19.4-20.5-38.4-31.5-57.3-5.2-9-9.8-18.4-14.5-27.6-.9-1.8-2-3.3-3.4-4.7-15.7-14.9-31.3-29.9-47-44.7-5.7-5.4-11.5-10.5-17.3-15.7-.5-.4-.9-1-2-.9-.4,2.7.7,5.2,1.2,7.8,6.1,30.8,17.1,59.9,29.8,88.5,6.7,15,14.7,29.3,24.5,42.6.4.5.7,1.1,1,1.7.9,1.5.5,2.9-.8,3.9-1.2.9-2.5.7-3.6-.2-1.9-1.6-3.4-3.5-4.8-5.5-8.8-13.3-16.5-27.2-23-41.8-8.1-18-14.9-36.4-21-55.1-4.1-12.5-6.5-25.4-9.4-38.3-.5-2.1-1.1-4.1-1.2-6.2-.4-5.5-3.5-9.2-7.4-12.6-13.1-11.5-24.5-24.7-36.6-37.2-2.1-2.2-4.4-3.7-7-5-2.4-1.2-5.3-2.1-3.9-6.1.6-1.6-1.2-2.5-2.2-3.5-5.5-6.2-11.1-12.3-16.7-18.5-.5-.6-1.1-1.2-1.5-1.9-.9-1.3-.7-2.4.3-3.5,1-1.1,2.1-1.4,3.5-.6,1.5.8,2.5,2,3.6,3.2,7.3,8.1,14.6,16.2,21.7,24.4,2.3,2.6,5.1,3.9,8.2,4.9,15.4,5.1,31.1,9.2,46.8,13.5,7.7,2.1,15.4,4.1,23,6.2,1.4.4,2.8,1,4.1,1.5,1.9.8,2.8,2.3,1.9,4.3-.8,1.9-2.5,1.9-4.2,1.3-4.9-1.8-10-2.7-15-4.2-16.1-4.6-32.2-9.1-48.3-13.7-.9-.3-1.9-.6-2.9,0,.2.4.2,1,.5,1.3,11.1,11.1,21.5,23,33.7,33.2,2.4,2,4.2,4.9,6.6,7.1,1.4,1.2,2.6,2.4,4.7,2.1,1.4-.2,2.5.5,3.6,1.2,20.4,11.9,42.1,21.1,64,30,13.7,5.6,27.4,11.1,41.4,15.8,3.5,1.2,6.8,3.2,10.1,4.9,1.6.8,3,2,4,3.5,1.3,1.9.3,4-2,4.2-1.6.2-2.8-.5-4-1.4-4.9-3.6-10.6-5.6-16.3-7.5-18.6-6.3-36.8-14-54.8-21.7-9.4-4.1-18.7-8.4-28-12.6-.6-.3-1.1-.7-2.5,0Z"/>
        <path class="cls-2" d="M303.1,1291c1.1-1.5,2.7-1.8,4.5-2.6-.2,2.1-1.4,2.8-2.5,3.6-.4-.8-1.2-1-2-1Z"/>
        <path class="cls-13" d="M580.4,968.8c.4,0,.8,0,1.1,0-.9,2-.5,4.4-2.2,6.1,0-2.1-.2-4.3,1.1-6.2Z"/>
        <path class="cls-6" d="M743.4,692.2c.6.6,1.1,1.2,1.1,2.1-.6.3-1.2.7-1.8,1-.2-1.1-.2-2.2.7-3.1Z"/>
        <path class="cls-10" d="M1028.7,730.5c-.2,0-.5.1-.7.1,0-.2.2-.4.2-.7.2.2.3.4.5.5Z"/>
        <path class="cls-10" d="M1029.5,731.5c-.3-.3-.5-.7-.8-1,.6,0,.8.5.8,1Z"/>
        <path class="cls-11" d="M1756.3,1108.6c17.8-8.4,35.9-16.1,52.3-27.3,8.8-6,16.9-12.7,23.2-21.3.3-.4.6-.8.9-1.1,1.2-1.2,2.5-1.6,3.9-.5,1.3,1,1.7,2.2.9,3.8-1.8,3.8-4.6,6.7-7.4,9.6-6.7,7.2-14.8,12.6-23,17.9-11.8,7.5-24.3,13.8-37.2,19.3-8.5,3.7-16.8,7.9-24.5,13-1.8,1.2-3.6,2.3-3.9,4.7-.1,1-.8,1.9-1.7,2.3-2.6,1-3.9,3.4-5.4,5.4-6.4,8.4-12.7,16.9-19,25.3-2.3,3.1-4.1,4-5.8,2.8-1.8-1.2-1.7-3.1.8-6.4,11.5-15.3,23.1-30.6,34.7-45.9,1.6-2.1,3.1-4.2,4.9-6.1,5-5.6,7.6-12.4,10.1-19.3,5-13.6,8.7-27.5,11.9-41.7,3.3-14.3,4.5-28.8,6.7-43.2.4-2.4.2-4.9.2-7.3,0-2,.6-3.6,3-3.6,2.4,0,2.9,1.6,2.9,3.6,0,5.4,0,10.7-1,16-1.7,10.1-2.5,20.3-4.7,30.3-2.6,12.2-5.5,24.4-9.2,36.3-.2.6-.7,1.1,0,2.2,2.1-2.8,4.1-5.4,5.9-8.2,15.4-22.6,30.4-45.4,43.8-69.2,10-17.9,18.9-36.4,27.9-54.8,1.1-2.2,1.4-4.6,1.7-7,.9-7.7,2.1-15.4,3.3-23.1,1-6,.9-12,.2-18-.5-3.7-.1-7.5-1.3-11.1-.4-1.3.4-2.5.7-3.8.3-1.4,1.1-2.4,2.6-2.4,1.4,0,2.3,1,2.9,2.3.2.4.3.9.3,1.4.4,10.2,1.8,20.4,1.1,30.7-.2,2.4-1.4,4.7-.8,7.5,1.2-.5,1.4-1.5,1.8-2.4,5.6-11.7,11.2-23.5,16.8-35.2,9-19.2,15.8-39.1,19.9-59.9.4-2.1.3-4.2.4-6.3.3-3.6,1.7-5.6,3.8-5.3,2.1.3,3.3,2.6,2.8,6-1.4,10-3.6,19.8-6.4,29.4-4.4,15-10.2,29.5-17,43.6-16.7,34.6-33.2,69.2-50.7,103.4-.7.7-.4,1.7-.7,2.6.7,0,1.2-.3,1.8-.5,5-3.5,9.1-7.8,13.4-12.1,9.9-9.9,19.8-19.8,29.6-29.8,5.4-5.5,9.7-11.8,13.4-18.5,1.9-3.5,3-4.2,4.9-3.4,2.2,1,2.4,2.5.6,6.2-3.4,7.1-8,13.4-13.5,19-10.9,11.2-22,22.2-33,33.3-5.9,5.9-12.1,11.4-18.7,16.4-7.3,5.5-12.7,12.4-17.4,20.1-14.5,23.5-29.7,46.6-46.6,68.5-2.7,3.5-4.9,7.3-8,10.4-.5,1.1,0,1.4,1.1,1.2Z"/>
        <path class="cls-11" d="M1464.7,1118.8c1.4-2,1.4-3.6,1.4-5.2,0-7,.3-14,.1-21-.5-17.2-3.6-33.8-9.9-49.9-.7-1.7-1.4-3.3-1.8-5-.4-1.3,0-2.7,1.4-3.3,1.5-.7,2.9-.4,3.9,1,.8,1.2,1.5,2.5,2,3.9,4.7,12.3,7.9,25,9.5,38.2.7,5.3.4,10.7,1.5,16,.6,2.8-.7,5.7-.7,8.7-.2,7.8.5,15.6-.8,23.4-.5,3.1.2,5.9,1.8,8.8,6.3,11.4,12.1,23,16.4,35.3.4,1.1.8,2.1,1,3.2.2,1.7-.7,2.9-2.2,3.4-1.4.5-2.5-.3-3.3-1.4-.5-.6-.8-1.4-1-2.2-7.4-21.2-18.9-40.3-30-59.6-1.1-1.9-2.4-3.5-4.2-4.6-9.3-5.7-17.7-12.6-26.7-18.8-13.8-9.6-28.9-16.9-44.4-23.3-3.9-1.6-7.7-3.4-11.6-5.1-1.9-.8-3-2.2-2.2-4.2.8-2.1,2.5-2.3,4.4-1.6.6.2,1.3.3,1.9.6,16.4,7.4,33.3,13.9,48.6,23.8,6.5,4.2,12.8,8.9,19.2,13.4,1.4,1,2.8,2,5.1,3.6-2.6-5.7-5.6-9.9-8.3-14.2-15.3-24.4-30.8-48.6-46.2-72.9-3-4.8-6.1-9.6-9.1-14.4-.9-1.4-1.7-2.9-3.2-3.6-3.1-1.3-5.3-3.8-7.6-6.1-12.5-12.4-25.9-23.7-40.9-33.1-3-1.9-6.2-3.6-9.5-5-2-.8-3.6-1.8-2.9-4.2.6-2,2.5-2.6,5.3-1.4,3.4,1.5,6.8,3.1,10,5.1,9.9,6.2,19.4,13.1,28.1,21,1.3,1.2,2.8,2.2,4.8,3.8-.4-2.8-1.9-4.4-2.9-6.1-9.8-16.5-20.2-32.6-32.1-47.7-6.9-8.7-14.4-16.8-22-24.8-1.8-1.9-3.5-3.9-5.2-5.8-1.2-1.4-1.7-2.9-.3-4.4,1.4-1.4,2.9-1.1,4.4,0,.8.6,1.5,1.2,2.2,1.9,12.2,13.3,24.4,26.5,35,41.2,12.7,17.7,23.4,36.7,35.2,55,9.2,14.2,18.2,28.5,27.3,42.7.4.7,1,1.2,1.8,2.2,1.1-2.1.9-4.1.6-5.8-2.1-11.3-2.9-22.8-4.4-34.2-2.8-19.8-6.6-39.3-12.5-58.5-.4-1.2-.6-2.5-.9-3.8-.4-1.8,0-3.3,1.9-3.9,2.1-.6,3.5.5,4.1,2.4,1.4,5.2,2.6,10.4,4.2,15.5,5.3,17.1,7.3,34.9,10,52.5,1.4,9,1.8,18.1,3.5,27,.8,4.3.8,8.8-.2,13.1-.8,3.6,0,6.3,1.9,9.2,6.4,10,12.7,20,19.1,30.1,9.4,14.8,18.5,29.8,27.2,45.1.7,1.2,1.5,2.4,2.5,4Z"/>
        <path class="cls-5" d="M1830.6,997.2c-.8,1.4-2.1,2.3-3.9,3.7.5-2.7,1.4-4.4,2.8-5.8,0,.9.2,1.7,1.1,2.1Z"/>
        <path class="cls-12" d="M1756.3,1108.6c-.7.7-1.5,2.2-2.4,1.1-.9-1.1.5-1.7,1.4-2.3.4.4.7.8,1.1,1.2Z"/>
        <path class="cls-11" d="M1671.1,559.5c-1.9,4.8-3.6,9.7-5.8,14.4-4.9,11-11.4,21-22,27.3-18.7,11.2-38.1,13.7-58.7,5.1-15-6.3-27.9-15.2-38.3-27.8-3.1-3.8-5.7-7.9-8-12.2-5.6-7.4-6.4-16.1-5.5-24.8.4-4,4.2-6.7,7.4-6.4,3.5.3,6.1,3,6.3,7.3.3,6.8,2.8,13.2,3.7,19.9.1,1.7,1.2,3,2.1,4.3,5.1,6.8,10.7,13.3,17.7,18.1,9.4,6.5,19.5,12.3,30.9,14,19.1,2.8,35.4-2.9,47.3-18.7,4.4-5.9,7.4-12.6,9.5-19.7.3-7.3,3.1-14.1,3.4-21.5.1-3.2,3-5.4,6.5-5.5,3.6,0,6.3,2,7.1,5.5,1.7,7.2-.1,14-3.5,20.4Z"/>
        <path class="cls-16" d="M1671.1,559.5c.9-4.4,1.9-8.9,2.7-13.4.5-2.8.4-5.5-.8-8.1-1.2-2.5-4-3.8-6.5-3.3-2.8.6-4.9,3.1-4.7,6,.5,7-1.8,13.4-4.1,19.7-3.6-2.7-8.1-4-11.2-7.5-7.7-8.5-8.3-18-4.4-28.1,3.2-8.1,13.2-14.2,22.1-14.3,15.1,0,26.2,11.9,25.6,25.9-.4,10.2-5.4,17.8-14.9,22.2-1.2.6-2.4.9-3.8.8Z"/>
        <path class="cls-16" d="M1550.3,562.5c-3.6-5.5-4.1-11.8-4.8-18.1,0-.8,0-1.6,0-2.4-.4-3.3-2.7-5.6-5.6-5.7-2.6,0-5.3,2.1-5.8,5-.5,2.6-.3,5.2,0,7.8.6,6,2.4,11.7,4.4,17.3-4.3.2-8.4-.3-12.3-2.3-9.2-4.7-13.8-12.1-14.1-22.7-.3-9.7,4.1-16.6,11.9-21.5,13.1-8.1,31.2-2.1,36.6,12.7,3.3,9,.5,23.5-10.2,29.8Z"/>
        <path class="cls-16" d="M1737,533.9c-2.4-.3-3.8-3.1-2.8-5.1.7-1.3,1.7-2.3,2.5-3.5,5.3-8,10.5-16,15.9-23.9,3.3-4.8,7.1-9.3,9.7-14.5.7-1.3,1.7-2.5,3.4-2.3,2.2.2,3.1,2.4,2.1,4.8-2.2,5.1-5.3,9.7-8.8,14-3.9,4.8-7.1,10.1-10.3,15.3-2.7,4.3-5.6,8.3-8.5,12.4-.9,1.3-2,2.5-3.3,2.8Z"/>
        <path class="cls-16" d="M1449.4,547.8c-2.1-.1-3.3-2-2.4-4.3.8-1.9,2-3.7,3.1-5.5,6.9-11.5,12.9-23.6,20.7-34.6.9-1.3,1.9-2.6,3.1-3.8,1.4-1.4,2.8-2.2,4.6-.6,1.9,1.6,1.1,3.3,0,4.7-3.9,4.8-7,10.1-10.1,15.5-4.6,7.8-9.1,15.7-13.7,23.5-.8,1.4-1.7,2.7-2.7,4.1-.6.9-1.5,1.1-2.6,1.1Z"/>
        <path class="cls-16" d="M1430.4,546.8c-1.8,0-3.2-1.6-2.9-3.3.1-.8.6-1.5.9-2.2,6.7-13.9,14.1-27.4,22.2-40.5.8-1.2,1.6-2.5,2.6-3.5.9-.9,2.2-1.5,3.5-.4,1,.9,1.8,1.9,1.3,3.4-.3.9-.8,1.8-1.3,2.6-7.9,12.8-15.5,25.8-22.1,39.5-.6,1.3-1.2,2.7-2.4,3.6-.6.5-1.4.9-2,.8Z"/>
        <path class="cls-16" d="M1765,534.1c-2,0-3.3-1.6-2.7-3.7.5-1.7,1.3-3.3,2.3-4.8,7.4-11.8,14.9-23.5,22.4-35.3.3-.4.4-.9.8-1.2,1.2-1.2,2.5-2.3,4.3-1.3,1.8,1,1.7,2.7.9,4.3-1,2.2-2.1,4.4-3.5,6.4-7,10.4-13.8,20.8-20.1,31.6-1,1.7-1.7,4.1-4.4,4Z"/>
        <path class="cls-16" d="M1741.5,484.8c-.3,1.8-1.4,3.5-2.3,5.1-2.4,4.1-5.1,7.9-8,11.5-5.1,6.4-8.9,13.5-13.2,20.4-.8,1.2-1.6,2.5-2.5,3.6-1,1.1-2.3,1.2-3.6.6-1.4-.7-1.7-1.9-1.4-3.3.5-2.1,1.7-3.8,2.8-5.6,5.4-8.3,10.6-16.7,16.6-24.5,2.2-3,4-6.3,6-9.4.9-1.4,2.2-1.9,3.7-1.5,1.5.4,2,1.6,1.9,3.2Z"/>
        <path class="cls-15" d="M1436.9,500.1c0,1.2-.3,2.2-.9,3.2-6.7,10.8-12.1,22.3-18,33.5-.5,1-1,2.1-1.6,3-1,1.4-2.2,2.6-4.1,1.4-1.5-1-2.2-2.4-1.3-4.2.2-.4.4-.9.6-1.3,5.5-10.5,10.3-21.4,16.4-31.6,1.2-2.1,2.4-4.2,4.2-5.9.9-.8,1.9-1.4,3.1-.9,1.2.5,1.6,1.5,1.6,2.8Z"/>
        <path class="cls-17" d="M1815.8,495.7c0,1.7-.7,2.9-1.5,4.1-3.9,6-7.1,12.3-10,18.9-2.1,4.7-4.8,9.2-7.3,13.8-.4.7-1,1.3-1.6,1.8-.9.9-2.1,1-3.1.2-1-.8-2.1-1.6-1.5-3.2.2-.6.5-1.2.8-1.8,5.8-10.7,10.4-22,16.7-32.4.8-1.3,1.4-2.5,2.5-3.5.9-.8,1.7-1.5,3-.9,1.3.6,2,1.6,1.8,3Z"/>
        <path class="cls-17" d="M1476.7,537.9c-2,.1-3.8-2.1-3.1-3.9.6-1.5,1.3-3,2.2-4.4,5.1-8.3,10-16.7,13.8-25.7.6-1.3,1.4-2.6,2.3-3.7.9-1.1,2.1-1.6,3.4-.7,1.3.8,2.3,1.9,1.8,3.6-.2.6-.5,1.2-.8,1.8-4.8,10.5-10.6,20.4-16.6,30.3-.8,1.3-1.6,2.4-3.1,2.7Z"/>
        <path class="cls-1" d="M941.9,975.1c-.2,3.1,0,7.1-.7,11.2-1.9,11.5-10.1,16.2-21.4,14.3-9-1.5-15.1-7.1-18.8-15.4-5-11.3-5.4-23-2.6-34.8,2.3-9.8,5.1-19.5,7.7-29.2.5-1.9,1-3.8,1.3-5.7.6-3.7,2.4-6.5,5.4-8.9,4.9-4,11.6-2.8,14.5,2.9.4.9.8,1.8,1,2.7,2.9,11.7,6.9,23,10.2,34.5,2.6,8.9,3.6,18.1,3.5,28.4Z"/>
        <path class="cls-11" d="M1096.3,814.7c.2,26.1-11.6,45.4-33.6,58.8-11.7,7.2-24.4,8.2-37.7,6-25-4.1-41.6-18.7-51.7-41.3-1.3-3-2.2-6.1-2.1-9.4,0-1.5.3-2.9,1-4.2,1.3-2.6,3.8-3.8,6.5-3.2,2.5.5,4.5,2.4,4.3,5.2-.3,4.7,1.8,8.5,3.9,12.4,12.5,23.2,33.7,31.9,57.4,29.2,7.3-.8,13.5-4.8,19.1-9.2,6.3-5,11.4-11.1,15.3-18.2,5.8-10.8,6.4-22.3,5.2-34.2-.2-1.6-.5-3.2-.2-4.8.7-2.8,2.8-4.6,5.5-4.7,2.7-.1,5,1.5,5.8,4.3,1.2,4.4,1.1,9,1.2,13.6Z"/>
        <path class="cls-7" d="M818.2,853h.3c0,0,0,.4,0,.4-.3,0-.4-.2-.3-.4Z"/>
      </g>
    </g>
  </g>
</svg>